<svg xmlns="http://www.w3.org/2000/svg" xmlns:xlink="http://www.w3.org/1999/xlink" width="450" zoomAndPan="magnify" viewBox="0 0 337.5 168.749997" height="225" preserveAspectRatio="xMidYMid meet" version="1.0"><defs><g/><clipPath id="782cc8a878"><path d="M 2.714844 81.613281 L 76.515625 81.613281 L 76.515625 166.097656 L 2.714844 166.097656 Z M 2.714844 81.613281 " clip-rule="nonzero"/></clipPath><clipPath id="657df7a08e"><path d="M 26.277344 89.640625 L 69.726562 89.640625 L 69.726562 133.085938 L 26.277344 133.085938 Z M 26.277344 89.640625 " clip-rule="nonzero"/></clipPath><clipPath id="23e6fd23ef"><path d="M 48 89.640625 C 36.003906 89.640625 26.277344 99.363281 26.277344 111.363281 C 26.277344 123.359375 36.003906 133.085938 48 133.085938 C 60 133.085938 69.726562 123.359375 69.726562 111.363281 C 69.726562 99.363281 60 89.640625 48 89.640625 Z M 48 89.640625 " clip-rule="nonzero"/></clipPath><clipPath id="2a15bf6632"><path d="M 2.515625 1.910156 L 86.996094 1.910156 L 86.996094 75.710938 L 2.515625 75.710938 Z M 2.515625 1.910156 " clip-rule="nonzero"/></clipPath><clipPath id="1dab0821da"><path d="M 30.175781 28.363281 L 73.625 28.363281 L 73.625 71.8125 L 30.175781 71.8125 Z M 30.175781 28.363281 " clip-rule="nonzero"/></clipPath><clipPath id="4fcf43aac9"><path d="M 51.902344 28.363281 C 39.902344 28.363281 30.175781 38.089844 30.175781 50.089844 C 30.175781 62.085938 39.902344 71.8125 51.902344 71.8125 C 63.898438 71.8125 73.625 62.085938 73.625 50.089844 C 73.625 38.089844 63.898438 28.363281 51.902344 28.363281 Z M 51.902344 28.363281 " clip-rule="nonzero"/></clipPath><clipPath id="b59b233a52"><path d="M 94.980469 1.707031 L 168.78125 1.707031 L 168.78125 86.191406 L 94.980469 86.191406 Z M 94.980469 1.707031 " clip-rule="nonzero"/></clipPath><clipPath id="1f1a5f6f84"><path d="M 97.882812 28.363281 L 141.332031 28.363281 L 141.332031 71.8125 L 97.882812 71.8125 Z M 97.882812 28.363281 " clip-rule="nonzero"/></clipPath><clipPath id="3249ead0dd"><path d="M 119.605469 28.363281 C 107.609375 28.363281 97.882812 38.089844 97.882812 50.089844 C 97.882812 62.085938 107.609375 71.8125 119.605469 71.8125 C 131.605469 71.8125 141.332031 62.085938 141.332031 50.089844 C 141.332031 38.089844 131.605469 28.363281 119.605469 28.363281 Z M 119.605469 28.363281 " clip-rule="nonzero"/></clipPath></defs><g clip-path="url(#782cc8a878)"><path fill="#4091cb" d="M 2.386719 90.394531 C 2.386719 87.4375 2.554688 84.496094 2.894531 81.558594 L 25.0625 81.5 C 24.574219 84.445312 24.332031 87.410156 24.332031 90.394531 C 24.332031 119.617188 47.597656 143.40625 76.613281 144.25 L 76.859375 166.210938 C 35.605469 165.484375 2.386719 131.820312 2.386719 90.394531 Z M 2.386719 90.394531 " fill-opacity="1" fill-rule="nonzero"/></g><g clip-path="url(#657df7a08e)"><g clip-path="url(#23e6fd23ef)"><path fill="#4091cb" d="M 26.277344 89.640625 L 69.726562 89.640625 L 69.726562 133.085938 L 26.277344 133.085938 Z M 26.277344 89.640625 " fill-opacity="1" fill-rule="nonzero"/></g></g><g fill="#000000" fill-opacity="1"><g transform="translate(76.865934, 137.281204)"><g><path d="M 28.578125 0.515625 L 28.578125 -6.78125 C 25.410156 -1.582031 21.664062 1.015625 17.34375 1.015625 C 13.019531 1.015625 9.613281 -0.707031 7.125 -4.15625 C 4.632812 -7.601562 3.390625 -12.296875 3.390625 -18.234375 C 3.390625 -24.171875 4.972656 -28.890625 8.140625 -32.390625 C 11.304688 -35.898438 15.289062 -37.65625 20.09375 -37.65625 C 23.207031 -37.65625 26.035156 -36.890625 28.578125 -35.359375 L 28.578125 -52.25 C 28.578125 -53.039062 28.179688 -53.4375 27.390625 -53.4375 L 23.40625 -53.4375 L 23.40625 -54.953125 L 27.5625 -54.953125 C 30.957031 -54.953125 33.332031 -55.125 34.6875 -55.46875 L 34.6875 -2.71875 C 34.6875 -1.925781 35.082031 -1.53125 35.875 -1.53125 L 39.859375 -1.53125 L 39.859375 0 L 35.703125 0 C 32.316406 0 29.941406 0.171875 28.578125 0.515625 Z M 20.3125 -35.109375 C 17.394531 -35.109375 14.921875 -33.648438 12.890625 -30.734375 C 10.859375 -27.828125 9.84375 -23.769531 9.84375 -18.5625 C 9.84375 -13.363281 10.675781 -9.335938 12.34375 -6.484375 C 14.007812 -3.628906 16.113281 -2.203125 18.65625 -2.203125 C 22.332031 -2.203125 25.640625 -4.773438 28.578125 -9.921875 L 28.578125 -32.734375 C 25.984375 -34.316406 23.226562 -35.109375 20.3125 -35.109375 Z M 20.3125 -35.109375 "/></g></g></g><g fill="#000000" fill-opacity="1"><g transform="translate(109.010679, 137.281204)"><g><path d="M 8.140625 -4.15625 C 4.972656 -7.601562 3.390625 -12.320312 3.390625 -18.3125 C 3.390625 -24.3125 4.972656 -29.035156 8.140625 -32.484375 C 11.304688 -35.929688 15.429688 -37.65625 20.515625 -37.65625 C 25.609375 -37.65625 29.75 -35.929688 32.9375 -32.484375 C 36.132812 -29.035156 37.734375 -24.3125 37.734375 -18.3125 C 37.734375 -12.320312 36.132812 -7.601562 32.9375 -4.15625 C 29.75 -0.707031 25.609375 1.015625 20.515625 1.015625 C 15.429688 1.015625 11.304688 -0.707031 8.140625 -4.15625 Z M 12.890625 -31.078125 C 10.859375 -27.941406 9.84375 -23.6875 9.84375 -18.3125 C 9.84375 -12.945312 10.859375 -8.691406 12.890625 -5.546875 C 14.921875 -2.410156 17.460938 -0.84375 20.515625 -0.84375 C 23.578125 -0.84375 26.140625 -2.410156 28.203125 -5.546875 C 30.265625 -8.691406 31.296875 -12.945312 31.296875 -18.3125 C 31.296875 -23.6875 30.265625 -27.941406 28.203125 -31.078125 C 26.140625 -34.222656 23.578125 -35.796875 20.515625 -35.796875 C 17.460938 -35.796875 14.921875 -34.222656 12.890625 -31.078125 Z M 12.890625 -31.078125 "/></g></g></g><g fill="#000000" fill-opacity="1"><g transform="translate(139.889349, 137.281204)"><g/></g></g><g fill="#000000" fill-opacity="1"><g transform="translate(150.830133, 137.281204)"><g/></g></g><g fill="#000000" fill-opacity="1"><g transform="translate(161.770917, 137.281204)"><g/></g></g><g fill="#000000" fill-opacity="1"><g transform="translate(172.711703, 137.281204)"><g/></g></g><g fill="#000000" fill-opacity="1"><g transform="translate(183.652485, 137.281204)"><g/></g></g><g fill="#000000" fill-opacity="1"><g transform="translate(194.593268, 137.281204)"><g/></g></g><g fill="#000000" fill-opacity="1"><g transform="translate(205.53405, 137.281204)"><g/></g></g><g fill="#000000" fill-opacity="1"><g transform="translate(216.479251, 137.281204)"><g><path d="M 8.140625 -4.15625 C 4.972656 -7.601562 3.390625 -12.320312 3.390625 -18.3125 C 3.390625 -24.3125 4.972656 -29.035156 8.140625 -32.484375 C 11.304688 -35.929688 15.429688 -37.65625 20.515625 -37.65625 C 25.609375 -37.65625 29.75 -35.929688 32.9375 -32.484375 C 36.132812 -29.035156 37.734375 -24.3125 37.734375 -18.3125 C 37.734375 -12.320312 36.132812 -7.601562 32.9375 -4.15625 C 29.75 -0.707031 25.609375 1.015625 20.515625 1.015625 C 15.429688 1.015625 11.304688 -0.707031 8.140625 -4.15625 Z M 12.890625 -31.078125 C 10.859375 -27.941406 9.84375 -23.6875 9.84375 -18.3125 C 9.84375 -12.945312 10.859375 -8.691406 12.890625 -5.546875 C 14.921875 -2.410156 17.460938 -0.84375 20.515625 -0.84375 C 23.578125 -0.84375 26.140625 -2.410156 28.203125 -5.546875 C 30.265625 -8.691406 31.296875 -12.945312 31.296875 -18.3125 C 31.296875 -23.6875 30.265625 -27.941406 28.203125 -31.078125 C 26.140625 -34.222656 23.578125 -35.796875 20.515625 -35.796875 C 17.460938 -35.796875 14.921875 -34.222656 12.890625 -31.078125 Z M 12.890625 -31.078125 "/></g></g></g><g fill="#000000" fill-opacity="1"><g transform="translate(247.351767, 137.281204)"><g><path d="M 38.328125 -24.765625 L 38.328125 -2.546875 C 38.328125 -1.867188 38.722656 -1.53125 39.515625 -1.53125 L 43.515625 -1.53125 L 43.515625 0 L 28.25 0 L 28.25 -1.53125 L 31.046875 -1.53125 C 31.835938 -1.53125 32.234375 -1.867188 32.234375 -2.546875 L 32.234375 -25.875 C 32.234375 -28.75 31.59375 -30.878906 30.3125 -32.265625 C 29.039062 -33.648438 27.363281 -34.34375 25.28125 -34.34375 C 22.332031 -34.34375 19.894531 -32.601562 17.96875 -29.125 C 16.050781 -25.65625 15.09375 -20.664062 15.09375 -14.15625 L 15.09375 -2.71875 C 15.09375 -1.925781 15.488281 -1.53125 16.28125 -1.53125 L 19.078125 -1.53125 L 19.078125 0 L 3.8125 0 L 3.8125 -1.53125 L 7.796875 -1.53125 C 8.585938 -1.53125 8.984375 -1.867188 8.984375 -2.546875 L 8.984375 -33.921875 C 8.984375 -34.710938 8.585938 -35.109375 7.796875 -35.109375 L 3.8125 -35.109375 L 3.8125 -36.640625 L 7.96875 -36.640625 C 11.363281 -36.640625 13.738281 -36.804688 15.09375 -37.140625 L 15.09375 -25.609375 C 17.019531 -33.640625 21.257812 -37.65625 27.8125 -37.65625 C 30.757812 -37.65625 33.25 -36.59375 35.28125 -34.46875 C 37.3125 -32.351562 38.328125 -29.117188 38.328125 -24.765625 Z M 38.328125 -24.765625 "/></g></g></g><g fill="#000000" fill-opacity="1"><g transform="translate(283.567663, 137.281204)"><g><path d="M 20.53125 -37.65625 C 24.425781 -37.65625 27.503906 -36.351562 29.765625 -33.75 C 32.023438 -31.15625 33.15625 -27.34375 33.15625 -22.3125 C 33.15625 -21.289062 33.097656 -20.15625 32.984375 -18.90625 L 9.84375 -18.90625 L 9.84375 -18.3125 C 9.84375 -12.945312 10.816406 -8.722656 12.765625 -5.640625 C 14.710938 -2.554688 17.226562 -1.015625 20.3125 -1.015625 C 23.394531 -1.015625 25.925781 -1.804688 27.90625 -3.390625 C 29.882812 -4.972656 31.238281 -7.234375 31.96875 -10.171875 L 33.578125 -9.84375 C 32.898438 -6.394531 31.347656 -3.722656 28.921875 -1.828125 C 26.492188 0.0664062 23.695312 1.015625 20.53125 1.015625 C 15.601562 1.015625 11.515625 -0.707031 8.265625 -4.15625 C 5.015625 -7.601562 3.390625 -12.304688 3.390625 -18.265625 C 3.390625 -24.234375 5.03125 -28.957031 8.3125 -32.4375 C 11.59375 -35.914062 15.664062 -37.65625 20.53125 -37.65625 Z M 27.3125 -25.1875 C 27.3125 -32.144531 24.707031 -35.625 19.5 -35.625 C 16.90625 -35.625 14.6875 -34.207031 12.84375 -31.375 C 11.007812 -28.550781 10.035156 -24.960938 9.921875 -20.609375 L 26.96875 -20.609375 C 27.195312 -22.535156 27.3125 -24.0625 27.3125 -25.1875 Z M 27.3125 -25.1875 "/></g></g></g><g fill="#000000" fill-opacity="1"><g transform="translate(151.050309, 157.389156)"><g><path d="M 40.46875 -81.40625 L 50.859375 -81.40625 L 50.375 -28.890625 L 62.3125 -28.890625 L 62.3125 -21.015625 L 50.25 -21.015625 L 49.78125 0 L 40.234375 0 L 40.703125 -21.015625 L 3.578125 -21.015625 L 1.4375 -28.046875 Z M 41.546875 -72.109375 L 41.296875 -72.109375 L 11.109375 -28.890625 L 40.59375 -28.890625 Z M 41.546875 -72.109375 "/></g></g></g><g clip-path="url(#2a15bf6632)"><path fill="#14486d" d="M 78.21875 1.578125 C 81.171875 1.578125 84.117188 1.746094 87.050781 2.085938 L 87.109375 24.257812 C 84.167969 23.769531 81.203125 23.523438 78.21875 23.527344 C 48.996094 23.527344 25.207031 46.789062 24.359375 75.808594 L 2.402344 76.054688 C 3.125 34.796875 36.792969 1.578125 78.21875 1.578125 Z M 78.21875 1.578125 " fill-opacity="1" fill-rule="nonzero"/></g><g clip-path="url(#1dab0821da)"><g clip-path="url(#4fcf43aac9)"><path fill="#14486d" d="M 30.175781 28.363281 L 73.625 28.363281 L 73.625 71.8125 L 30.175781 71.8125 Z M 30.175781 28.363281 " fill-opacity="1" fill-rule="nonzero"/></g></g><g clip-path="url(#b59b233a52)"><path fill="#0097b2" d="M 169.113281 77.410156 C 169.113281 80.363281 168.945312 83.308594 168.605469 86.242188 L 146.433594 86.304688 C 146.921875 83.359375 147.167969 80.394531 147.164062 77.410156 C 147.164062 48.1875 123.902344 24.398438 94.882812 23.554688 L 94.636719 1.59375 C 135.894531 2.316406 169.113281 35.984375 169.113281 77.410156 Z M 169.113281 77.410156 " fill-opacity="1" fill-rule="nonzero"/></g><g clip-path="url(#1f1a5f6f84)"><g clip-path="url(#3249ead0dd)"><path fill="#0097b2" d="M 97.882812 28.363281 L 141.332031 28.363281 L 141.332031 71.8125 L 97.882812 71.8125 Z M 97.882812 28.363281 " fill-opacity="1" fill-rule="nonzero"/></g></g></svg>