<svg xmlns="http://www.w3.org/2000/svg" xmlns:xlink="http://www.w3.org/1999/xlink" width="225" zoomAndPan="magnify" viewBox="0 0 168.75 168.749997" height="225" preserveAspectRatio="xMidYMid meet" version="1.0"><defs><clipPath id="58df4031b7"><path d="M 1.757812 81.847656 L 75.433594 81.847656 L 75.433594 165.714844 L 1.757812 165.714844 Z M 1.757812 81.847656 " clip-rule="nonzero"/></clipPath><clipPath id="f3edac7966"><path d="M 25.402344 89.925781 L 68.390625 89.925781 L 68.390625 132.914062 L 25.402344 132.914062 Z M 25.402344 89.925781 " clip-rule="nonzero"/></clipPath><clipPath id="7ac38ab168"><path d="M 46.894531 89.925781 C 35.023438 89.925781 25.402344 99.546875 25.402344 111.417969 C 25.402344 123.289062 35.023438 132.914062 46.894531 132.914062 C 58.765625 132.914062 68.390625 123.289062 68.390625 111.417969 C 68.390625 99.546875 58.765625 89.925781 46.894531 89.925781 Z M 46.894531 89.925781 " clip-rule="nonzero"/></clipPath><clipPath id="f50691c093"><path d="M 1.746094 2.792969 L 85.613281 2.792969 L 85.613281 76.472656 L 1.746094 76.472656 Z M 1.746094 2.792969 " clip-rule="nonzero"/></clipPath><clipPath id="a92e91df2b"><path d="M 29.261719 29.300781 L 72.25 29.300781 L 72.25 72.289062 L 29.261719 72.289062 Z M 29.261719 29.300781 " clip-rule="nonzero"/></clipPath><clipPath id="6d71aaddfb"><path d="M 50.757812 29.300781 C 38.886719 29.300781 29.261719 38.921875 29.261719 50.792969 C 29.261719 62.664062 38.886719 72.289062 50.757812 72.289062 C 62.628906 72.289062 72.25 62.664062 72.25 50.792969 C 72.25 38.921875 62.628906 29.300781 50.757812 29.300781 Z M 50.757812 29.300781 " clip-rule="nonzero"/></clipPath><clipPath id="b129eaef57"><path d="M 93.042969 2.785156 L 166.722656 2.785156 L 166.722656 86.652344 L 93.042969 86.652344 Z M 93.042969 2.785156 " clip-rule="nonzero"/></clipPath><clipPath id="86f01f3e0e"><path d="M 96.25 29.300781 L 139.238281 29.300781 L 139.238281 72.289062 L 96.25 72.289062 Z M 96.25 29.300781 " clip-rule="nonzero"/></clipPath><clipPath id="78b5650b4a"><path d="M 117.742188 29.300781 C 105.875 29.300781 96.25 38.921875 96.25 50.792969 C 96.25 62.664062 105.875 72.289062 117.742188 72.289062 C 129.613281 72.289062 139.238281 62.664062 139.238281 50.792969 C 139.238281 38.921875 129.613281 29.300781 117.742188 29.300781 Z M 117.742188 29.300781 " clip-rule="nonzero"/></clipPath></defs><g clip-path="url(#58df4031b7)"><path fill="#4091cb" d="M 1.765625 90.675781 C 1.765625 87.753906 1.933594 84.84375 2.269531 81.9375 L 24.199219 81.878906 C 23.714844 84.792969 23.476562 87.726562 23.476562 90.675781 C 23.476562 119.585938 46.488281 143.121094 75.195312 143.957031 L 75.4375 165.679688 C 34.625 164.960938 1.765625 131.65625 1.765625 90.675781 Z M 1.765625 90.675781 " fill-opacity="1" fill-rule="nonzero"/></g><g clip-path="url(#f3edac7966)"><g clip-path="url(#7ac38ab168)"><path fill="#4091cb" d="M 25.402344 89.925781 L 68.390625 89.925781 L 68.390625 132.914062 L 25.402344 132.914062 Z M 25.402344 89.925781 " fill-opacity="1" fill-rule="nonzero"/></g></g><g clip-path="url(#f50691c093)"><path fill="#14486d" d="M 76.78125 2.804688 C 79.707031 2.800781 82.617188 2.96875 85.519531 3.308594 L 85.578125 25.238281 C 82.667969 24.753906 79.734375 24.515625 76.78125 24.515625 C 47.875 24.515625 24.339844 47.527344 23.503906 76.234375 L 1.78125 76.476562 C 2.496094 35.664062 35.800781 2.804688 76.78125 2.804688 Z M 76.78125 2.804688 " fill-opacity="1" fill-rule="nonzero"/></g><g clip-path="url(#a92e91df2b)"><g clip-path="url(#6d71aaddfb)"><path fill="#14486d" d="M 29.261719 29.300781 L 72.25 29.300781 L 72.25 72.289062 L 29.261719 72.289062 Z M 29.261719 29.300781 " fill-opacity="1" fill-rule="nonzero"/></g></g><g clip-path="url(#b129eaef57)"><path fill="#0097b2" d="M 166.714844 77.820312 C 166.714844 80.742188 166.546875 83.65625 166.210938 86.558594 L 144.28125 86.617188 C 144.761719 83.707031 145.003906 80.773438 145.003906 77.820312 C 145.003906 48.914062 121.988281 25.378906 93.285156 24.542969 L 93.039062 2.820312 C 133.851562 3.535156 166.714844 36.839844 166.714844 77.820312 Z M 166.714844 77.820312 " fill-opacity="1" fill-rule="nonzero"/></g><g clip-path="url(#86f01f3e0e)"><g clip-path="url(#78b5650b4a)"><path fill="#0097b2" d="M 96.25 29.300781 L 139.238281 29.300781 L 139.238281 72.289062 L 96.25 72.289062 Z M 96.25 29.300781 " fill-opacity="1" fill-rule="nonzero"/></g></g></svg>