<svg xmlns="http://www.w3.org/2000/svg" xmlns:xlink="http://www.w3.org/1999/xlink" width="200" zoomAndPan="magnify" viewBox="0 0 150 60" height="80" preserveAspectRatio="xMidYMid meet" version="1.0"><defs><g/></defs><g fill="#000000" fill-opacity="1"><g transform="translate(-1.05, 43.501622)"><g><path d="M 17.703125 0.3125 L 17.703125 -4.203125 C 15.742188 -0.984375 13.421875 0.625 10.734375 0.625 C 8.054688 0.625 5.945312 -0.441406 4.40625 -2.578125 C 2.863281 -4.710938 2.09375 -7.617188 2.09375 -11.296875 C 2.09375 -14.972656 3.070312 -17.894531 5.03125 -20.0625 C 7 -22.238281 9.472656 -23.328125 12.453125 -23.328125 C 14.378906 -23.328125 16.128906 -22.851562 17.703125 -21.90625 L 17.703125 -32.359375 C 17.703125 -32.847656 17.457031 -33.09375 16.96875 -33.09375 L 14.5 -33.09375 L 14.5 -34.046875 L 17.078125 -34.046875 C 19.171875 -34.046875 20.640625 -34.148438 21.484375 -34.359375 L 21.484375 -1.6875 C 21.484375 -1.195312 21.726562 -0.953125 22.21875 -0.953125 L 24.6875 -0.953125 L 24.6875 0 L 22.109375 0 C 20.015625 0 18.546875 0.101562 17.703125 0.3125 Z M 12.578125 -21.75 C 10.773438 -21.75 9.242188 -20.847656 7.984375 -19.046875 C 6.722656 -17.242188 6.09375 -14.726562 6.09375 -11.5 C 6.09375 -8.28125 6.609375 -5.785156 7.640625 -4.015625 C 8.671875 -2.242188 9.976562 -1.359375 11.5625 -1.359375 C 13.832031 -1.359375 15.878906 -2.953125 17.703125 -6.140625 L 17.703125 -20.28125 C 16.085938 -21.257812 14.378906 -21.75 12.578125 -21.75 Z M 12.578125 -21.75 "/></g></g></g><g fill="#000000" fill-opacity="1"><g transform="translate(18.860203, 43.501622)"><g><path d="M 5.03125 -2.578125 C 3.070312 -4.710938 2.09375 -7.632812 2.09375 -11.34375 C 2.09375 -15.0625 3.070312 -17.988281 5.03125 -20.125 C 7 -22.257812 9.554688 -23.328125 12.703125 -23.328125 C 15.859375 -23.328125 18.425781 -22.257812 20.40625 -20.125 C 22.382812 -17.988281 23.375 -15.0625 23.375 -11.34375 C 23.375 -7.632812 22.382812 -4.710938 20.40625 -2.578125 C 18.425781 -0.441406 15.859375 0.625 12.703125 0.625 C 9.554688 0.625 7 -0.441406 5.03125 -2.578125 Z M 7.984375 -19.25 C 6.722656 -17.3125 6.09375 -14.675781 6.09375 -11.34375 C 6.09375 -8.019531 6.722656 -5.382812 7.984375 -3.4375 C 9.242188 -1.5 10.816406 -0.53125 12.703125 -0.53125 C 14.597656 -0.53125 16.1875 -1.5 17.46875 -3.4375 C 18.75 -5.382812 19.390625 -8.019531 19.390625 -11.34375 C 19.390625 -14.675781 18.75 -17.3125 17.46875 -19.25 C 16.1875 -21.195312 14.597656 -22.171875 12.703125 -22.171875 C 10.816406 -22.171875 9.242188 -21.195312 7.984375 -19.25 Z M 7.984375 -19.25 "/></g></g></g><g fill="#000000" fill-opacity="1"><g transform="translate(37.98621, 43.501622)"><g/></g></g><g fill="#000000" fill-opacity="1"><g transform="translate(44.762846, 43.501622)"><g/></g></g><g fill="#000000" fill-opacity="1"><g transform="translate(51.539482, 43.501622)"><g/></g></g><g fill="#000000" fill-opacity="1"><g transform="translate(58.316119, 43.501622)"><g/></g></g><g fill="#000000" fill-opacity="1"><g transform="translate(65.092754, 43.501622)"><g/></g></g><g fill="#000000" fill-opacity="1"><g transform="translate(71.869389, 43.501622)"><g/></g></g><g fill="#000000" fill-opacity="1"><g transform="translate(78.646024, 43.501622)"><g/></g></g><g fill="#000000" fill-opacity="1"><g transform="translate(85.425395, 43.501622)"><g><path d="M 5.03125 -2.578125 C 3.070312 -4.710938 2.09375 -7.632812 2.09375 -11.34375 C 2.09375 -15.0625 3.070312 -17.988281 5.03125 -20.125 C 7 -22.257812 9.554688 -23.328125 12.703125 -23.328125 C 15.859375 -23.328125 18.425781 -22.257812 20.40625 -20.125 C 22.382812 -17.988281 23.375 -15.0625 23.375 -11.34375 C 23.375 -7.632812 22.382812 -4.710938 20.40625 -2.578125 C 18.425781 -0.441406 15.859375 0.625 12.703125 0.625 C 9.554688 0.625 7 -0.441406 5.03125 -2.578125 Z M 7.984375 -19.25 C 6.722656 -17.3125 6.09375 -14.675781 6.09375 -11.34375 C 6.09375 -8.019531 6.722656 -5.382812 7.984375 -3.4375 C 9.242188 -1.5 10.816406 -0.53125 12.703125 -0.53125 C 14.597656 -0.53125 16.1875 -1.5 17.46875 -3.4375 C 18.75 -5.382812 19.390625 -8.019531 19.390625 -11.34375 C 19.390625 -14.675781 18.75 -17.3125 17.46875 -19.25 C 16.1875 -21.195312 14.597656 -22.171875 12.703125 -22.171875 C 10.816406 -22.171875 9.242188 -21.195312 7.984375 -19.25 Z M 7.984375 -19.25 "/></g></g></g><g fill="#000000" fill-opacity="1"><g transform="translate(104.54759, 43.501622)"><g><path d="M 23.75 -15.34375 L 23.75 -1.578125 C 23.75 -1.160156 23.992188 -0.953125 24.484375 -0.953125 L 26.953125 -0.953125 L 26.953125 0 L 17.5 0 L 17.5 -0.953125 L 19.21875 -0.953125 C 19.71875 -0.953125 19.96875 -1.160156 19.96875 -1.578125 L 19.96875 -16.015625 C 19.96875 -17.804688 19.570312 -19.128906 18.78125 -19.984375 C 17.988281 -20.847656 16.945312 -21.28125 15.65625 -21.28125 C 13.832031 -21.28125 12.320312 -20.203125 11.125 -18.046875 C 9.9375 -15.890625 9.34375 -12.796875 9.34375 -8.765625 L 9.34375 -1.6875 C 9.34375 -1.195312 9.59375 -0.953125 10.09375 -0.953125 L 11.8125 -0.953125 L 11.8125 0 L 2.359375 0 L 2.359375 -0.953125 L 4.828125 -0.953125 C 5.316406 -0.953125 5.5625 -1.160156 5.5625 -1.578125 L 5.5625 -21.015625 C 5.5625 -21.503906 5.316406 -21.75 4.828125 -21.75 L 2.359375 -21.75 L 2.359375 -22.6875 L 4.9375 -22.6875 C 7.039062 -22.6875 8.507812 -22.796875 9.34375 -23.015625 L 9.34375 -15.859375 C 10.539062 -20.835938 13.171875 -23.328125 17.234375 -23.328125 C 19.054688 -23.328125 20.597656 -22.671875 21.859375 -21.359375 C 23.117188 -20.046875 23.75 -18.039062 23.75 -15.34375 Z M 23.75 -15.34375 "/></g></g></g><g fill="#000000" fill-opacity="1"><g transform="translate(126.979432, 43.501622)"><g><path d="M 12.71875 -23.328125 C 15.132812 -23.328125 17.039062 -22.519531 18.4375 -20.90625 C 19.84375 -19.289062 20.546875 -16.925781 20.546875 -13.8125 C 20.546875 -13.1875 20.507812 -12.488281 20.4375 -11.71875 L 6.09375 -11.71875 L 6.09375 -11.34375 C 6.09375 -8.019531 6.695312 -5.398438 7.90625 -3.484375 C 9.113281 -1.578125 10.671875 -0.625 12.578125 -0.625 C 14.484375 -0.625 16.050781 -1.113281 17.28125 -2.09375 C 18.507812 -3.082031 19.347656 -4.484375 19.796875 -6.296875 L 20.796875 -6.09375 C 20.378906 -3.957031 19.414062 -2.300781 17.90625 -1.125 C 16.40625 0.0390625 14.675781 0.625 12.71875 0.625 C 9.664062 0.625 7.128906 -0.441406 5.109375 -2.578125 C 3.097656 -4.710938 2.09375 -7.625 2.09375 -11.3125 C 2.09375 -15.007812 3.109375 -17.9375 5.140625 -20.09375 C 7.171875 -22.25 9.695312 -23.328125 12.71875 -23.328125 Z M 16.921875 -15.609375 C 16.921875 -19.910156 15.304688 -22.0625 12.078125 -22.0625 C 10.472656 -22.0625 9.097656 -21.1875 7.953125 -19.4375 C 6.816406 -17.6875 6.210938 -15.460938 6.140625 -12.765625 L 16.703125 -12.765625 C 16.847656 -13.953125 16.921875 -14.898438 16.921875 -15.609375 Z M 16.921875 -15.609375 "/></g></g></g><g fill="#000000" fill-opacity="1"><g transform="translate(44.899225, 55.956334)"><g><path d="M 25.0625 -50.421875 L 31.5 -50.421875 L 31.203125 -17.890625 L 38.59375 -17.890625 L 38.59375 -13.015625 L 31.125 -13.015625 L 30.828125 0 L 24.921875 0 L 25.21875 -13.015625 L 2.21875 -13.015625 L 0.890625 -17.375 Z M 25.734375 -44.65625 L 25.578125 -44.65625 L 6.875 -17.890625 L 25.140625 -17.890625 Z M 25.734375 -44.65625 "/></g></g></g></svg>