<svg xmlns="http://www.w3.org/2000/svg" xmlns:xlink="http://www.w3.org/1999/xlink" width="225" zoomAndPan="magnify" viewBox="0 0 168.75 168.749997" height="225" preserveAspectRatio="xMidYMid meet" version="1.0"><defs><clipPath id="e8eb004aca"><path d="M 1.757812 81.847656 L 75.433594 81.847656 L 75.433594 165.714844 L 1.757812 165.714844 Z M 1.757812 81.847656 " clip-rule="nonzero"/></clipPath><clipPath id="b15eb229b2"><path d="M 25.402344 89.925781 L 68.390625 89.925781 L 68.390625 132.914062 L 25.402344 132.914062 Z M 25.402344 89.925781 " clip-rule="nonzero"/></clipPath><clipPath id="8b51f0a763"><path d="M 46.894531 89.925781 C 35.023438 89.925781 25.402344 99.546875 25.402344 111.417969 C 25.402344 123.289062 35.023438 132.914062 46.894531 132.914062 C 58.765625 132.914062 68.390625 123.289062 68.390625 111.417969 C 68.390625 99.546875 58.765625 89.925781 46.894531 89.925781 Z M 46.894531 89.925781 " clip-rule="nonzero"/></clipPath><clipPath id="33014280d7"><path d="M 1.746094 2.792969 L 85.613281 2.792969 L 85.613281 76.472656 L 1.746094 76.472656 Z M 1.746094 2.792969 " clip-rule="nonzero"/></clipPath><clipPath id="ceb5bf0b1b"><path d="M 29.261719 29.300781 L 72.25 29.300781 L 72.25 72.289062 L 29.261719 72.289062 Z M 29.261719 29.300781 " clip-rule="nonzero"/></clipPath><clipPath id="c84f8870ad"><path d="M 50.757812 29.300781 C 38.886719 29.300781 29.261719 38.921875 29.261719 50.792969 C 29.261719 62.664062 38.886719 72.289062 50.757812 72.289062 C 62.628906 72.289062 72.25 62.664062 72.25 50.792969 C 72.25 38.921875 62.628906 29.300781 50.757812 29.300781 Z M 50.757812 29.300781 " clip-rule="nonzero"/></clipPath><clipPath id="6eb5ee82b7"><path d="M 93.042969 2.785156 L 166.722656 2.785156 L 166.722656 86.652344 L 93.042969 86.652344 Z M 93.042969 2.785156 " clip-rule="nonzero"/></clipPath><clipPath id="4a2d1e1746"><path d="M 96.25 29.300781 L 139.238281 29.300781 L 139.238281 72.289062 L 96.25 72.289062 Z M 96.25 29.300781 " clip-rule="nonzero"/></clipPath><clipPath id="6d22b42e67"><path d="M 117.742188 29.300781 C 105.875 29.300781 96.25 38.921875 96.25 50.792969 C 96.25 62.664062 105.875 72.289062 117.742188 72.289062 C 129.613281 72.289062 139.238281 62.664062 139.238281 50.792969 C 139.238281 38.921875 129.613281 29.300781 117.742188 29.300781 Z M 117.742188 29.300781 " clip-rule="nonzero"/></clipPath></defs><g clip-path="url(#e8eb004aca)"><path fill="#000000" d="M 1.347656 90.140625 C 1.347656 87.195312 1.515625 84.261719 1.855469 81.335938 L 23.910156 81.277344 C 23.421875 84.210938 23.179688 87.164062 23.183594 90.140625 C 23.183594 119.253906 46.324219 142.957031 75.195312 143.800781 L 75.4375 165.679688 C 34.394531 164.957031 1.347656 131.414062 1.347656 90.140625 Z M 1.347656 90.140625 " fill-opacity="1" fill-rule="nonzero"/></g><g clip-path="url(#b15eb229b2)"><g clip-path="url(#8b51f0a763)"><path fill="#000000" d="M 25.402344 89.925781 L 68.390625 89.925781 L 68.390625 132.914062 L 25.402344 132.914062 Z M 25.402344 89.925781 " fill-opacity="1" fill-rule="nonzero"/></g></g><g clip-path="url(#33014280d7)"><path fill="#000000" d="M 77.320312 2.386719 C 80.265625 2.386719 83.199219 2.554688 86.121094 2.894531 L 86.179688 24.949219 C 83.246094 24.460938 80.292969 24.21875 77.320312 24.222656 C 48.207031 24.222656 24.503906 47.363281 23.660156 76.234375 L 1.78125 76.476562 C 2.503906 35.433594 36.046875 2.386719 77.320312 2.386719 Z M 77.320312 2.386719 " fill-opacity="1" fill-rule="nonzero"/></g><g clip-path="url(#ceb5bf0b1b)"><g clip-path="url(#c84f8870ad)"><path fill="#000000" d="M 29.261719 29.300781 L 72.25 29.300781 L 72.25 72.289062 L 29.261719 72.289062 Z M 29.261719 29.300781 " fill-opacity="1" fill-rule="nonzero"/></g></g><g clip-path="url(#6eb5ee82b7)"><path fill="#000000" d="M 167.132812 78.359375 C 167.132812 81.304688 166.964844 84.238281 166.625 87.160156 L 144.570312 87.21875 C 145.054688 84.285156 145.296875 81.332031 145.296875 78.359375 C 145.296875 49.242188 122.152344 25.542969 93.285156 24.699219 L 93.039062 2.820312 C 134.085938 3.542969 167.132812 37.085938 167.132812 78.359375 Z M 167.132812 78.359375 " fill-opacity="1" fill-rule="nonzero"/></g><g clip-path="url(#4a2d1e1746)"><g clip-path="url(#6d22b42e67)"><path fill="#000000" d="M 96.25 29.300781 L 139.238281 29.300781 L 139.238281 72.289062 L 96.25 72.289062 Z M 96.25 29.300781 " fill-opacity="1" fill-rule="nonzero"/></g></g></svg>